<?xml version="1.0" encoding="UTF-8" standalone="no"?>
<!DOCTYPE svg PUBLIC "-//W3C//DTD SVG 1.1//EN"
 "http://www.w3.org/Graphics/SVG/1.1/DTD/svg11.dtd">
<!-- Generated by graphviz version 14.0.2 (20251019.1705)
 -->
<!-- Title: G_r2_k1_h1_skeleton Pages: 1 -->
<svg width="262pt" height="167pt"
 viewBox="0.00 0.00 262.00 167.00" xmlns="http://www.w3.org/2000/svg" xmlns:xlink="http://www.w3.org/1999/xlink">
<g id="graph0" class="graph" transform="scale(1 1) rotate(0) translate(2.88 164.13)">
<title>G_r2_k1_h1_skeleton</title>
<polygon fill="white" stroke="none" points="-2.88,2.88 -2.88,-164.13 259.38,-164.13 259.38,2.88 -2.88,2.88"/>
<!-- 0&#45;&#45;1 -->
<g id="edge1" class="edge">
<title>0&#45;&#45;1</title>
<path fill="none" stroke="#111111" stroke-width="0.95" d="M165.89,-55.21C169.94,-56.38 176.66,-58.32 180.8,-59.52"/>
</g>
<!-- 0&#45;&#45;2 -->
<g id="edge2" class="edge">
<title>0&#45;&#45;2</title>
<path fill="none" stroke="#111111" stroke-width="0.95" d="M164.96,-56.54C170.09,-61.32 181.79,-72.19 186.99,-77.03"/>
</g>
<!-- 0&#45;&#45;4 -->
<g id="edge3" class="edge">
<title>0&#45;&#45;4</title>
<path fill="none" stroke="#111111" stroke-width="0.95" d="M158.89,-54.89C149.74,-56.62 125.52,-61.2 116.4,-62.93"/>
</g>
<!-- 0&#45;&#45;6 -->
<g id="edge4" class="edge">
<title>0&#45;&#45;6</title>
<path fill="none" stroke="#111111" stroke-width="0.95" d="M165.52,-52.08C172.87,-46.96 191.39,-34.06 198.61,-29.03"/>
</g>
<!-- 1&#45;&#45;3 -->
<g id="edge5" class="edge">
<title>1&#45;&#45;3</title>
<path fill="none" stroke="#111111" stroke-width="0.95" d="M186.43,-63.41C188.43,-66.3 191.51,-70.97 193.73,-75.26 197.78,-83.06 199.56,-93.36 200.25,-98.79"/>
</g>
<!-- 1&#45;&#45;15 -->
<g id="edge6" class="edge">
<title>1&#45;&#45;15</title>
<path fill="none" stroke="#111111" stroke-width="0.95" d="M183.23,-57.09C181.08,-50.81 176.55,-37.63 174.43,-31.44"/>
</g>
<!-- 2&#45;&#45;3 -->
<g id="edge7" class="edge">
<title>2&#45;&#45;3</title>
<path fill="none" stroke="#111111" stroke-width="0.95" d="M191.11,-82.63C193.2,-86.99 196.93,-94.75 199.05,-99.18"/>
</g>
<!-- 2&#45;&#45;16 -->
<g id="edge8" class="edge">
<title>2&#45;&#45;16</title>
<path fill="none" stroke="#111111" stroke-width="0.95" d="M192.85,-78.42C197.89,-76.89 207.49,-73.98 212.74,-72.38"/>
</g>
<!-- 3&#45;&#45;9 -->
<g id="edge9" class="edge">
<title>3&#45;&#45;9</title>
<path fill="none" stroke="#111111" stroke-width="0.95" d="M198.88,-105.67C195.67,-111.37 188.95,-123.33 185.79,-128.95"/>
</g>
<!-- 3&#45;&#45;12 -->
<g id="edge10" class="edge">
<title>3&#45;&#45;12</title>
<path fill="none" stroke="#111111" stroke-width="0.95" d="M203.28,-104.98C208.68,-110.04 220.97,-121.57 226.44,-126.69"/>
</g>
<!-- 4&#45;&#45;5 -->
<g id="edge11" class="edge">
<title>4&#45;&#45;5</title>
<path fill="none" stroke="#111111" stroke-width="0.95" d="M112.33,-60.18C111.7,-56.15 110.65,-49.47 110.01,-45.35"/>
</g>
<!-- 4&#45;&#45;17 -->
<g id="edge12" class="edge">
<title>4&#45;&#45;17</title>
<path fill="none" stroke="#111111" stroke-width="0.95" d="M109.43,-64.68C100.59,-67.45 77.2,-74.79 68.41,-77.55"/>
</g>
<!-- 6&#45;&#45;7 -->
<g id="edge13" class="edge">
<title>6&#45;&#45;7</title>
<path fill="none" stroke="#111111" stroke-width="0.95" d="M205.32,-26.88C211.66,-26.71 224.38,-26.36 230.69,-26.19"/>
</g>
<!-- 6&#45;&#45;8 -->
<g id="edge14" class="edge">
<title>6&#45;&#45;8</title>
<path fill="none" stroke="#111111" stroke-width="0.95" d="M203.59,-24.09C206.78,-19.57 212.93,-10.87 216.13,-6.33"/>
</g>
<!-- 9&#45;&#45;10 -->
<g id="edge15" class="edge">
<title>9&#45;&#45;10</title>
<path fill="none" stroke="#111111" stroke-width="0.95" d="M183.43,-135.58C182.54,-140.47 180.95,-149.15 180.05,-154.1"/>
</g>
<!-- 9&#45;&#45;11 -->
<g id="edge16" class="edge">
<title>9&#45;&#45;11</title>
<path fill="none" stroke="#111111" stroke-width="0.95" d="M180.49,-132.54C175.61,-133.27 166.93,-134.59 161.98,-135.34"/>
</g>
<!-- 12&#45;&#45;13 -->
<g id="edge17" class="edge">
<title>12&#45;&#45;13</title>
<path fill="none" stroke="#111111" stroke-width="0.95" d="M228.79,-132.61C228.26,-137.78 227.25,-147.63 226.69,-153.03"/>
</g>
<!-- 12&#45;&#45;14 -->
<g id="edge18" class="edge">
<title>12&#45;&#45;14</title>
<path fill="none" stroke="#111111" stroke-width="0.95" d="M232.08,-130.95C236.57,-133.6 245.13,-138.63 249.82,-141.38"/>
</g>
<!-- 17&#45;&#45;18 -->
<g id="edge19" class="edge">
<title>17&#45;&#45;18</title>
<path fill="none" stroke="#111111" stroke-width="0.95" d="M62.44,-76.33C57.18,-71.6 45.22,-60.85 39.91,-56.07"/>
</g>
<!-- 17&#45;&#45;21 -->
<g id="edge20" class="edge">
<title>17&#45;&#45;21</title>
<path fill="none" stroke="#111111" stroke-width="0.95" d="M62.42,-80.9C56.37,-86.23 41.32,-99.51 35.02,-105.06"/>
</g>
<!-- 17&#45;&#45;24 -->
<g id="edge21" class="edge">
<title>17&#45;&#45;24</title>
<path fill="none" stroke="#111111" stroke-width="0.95" d="M66.11,-82.11C67.85,-87.55 71.21,-98.03 72.96,-103.49"/>
</g>
<!-- 18&#45;&#45;19 -->
<g id="edge22" class="edge">
<title>18&#45;&#45;19</title>
<path fill="none" stroke="#111111" stroke-width="0.95" d="M35.42,-50.67C32.51,-45.93 26.91,-36.81 23.99,-32.05"/>
</g>
<!-- 18&#45;&#45;20 -->
<g id="edge23" class="edge">
<title>18&#45;&#45;20</title>
<path fill="none" stroke="#111111" stroke-width="0.95" d="M33.84,-54.7C29.17,-56.05 20.85,-58.47 16.12,-59.84"/>
</g>
<!-- 21&#45;&#45;22 -->
<g id="edge24" class="edge">
<title>21&#45;&#45;22</title>
<path fill="none" stroke="#111111" stroke-width="0.95" d="M28.65,-108.96C23.13,-111.14 12.51,-115.33 6.98,-117.51"/>
</g>
<!-- 21&#45;&#45;23 -->
<g id="edge25" class="edge">
<title>21&#45;&#45;23</title>
<path fill="none" stroke="#111111" stroke-width="0.95" d="M31.65,-111.32C30.81,-117.19 29.21,-128.47 28.37,-134.36"/>
</g>
<!-- 24&#45;&#45;25 -->
<g id="edge26" class="edge">
<title>24&#45;&#45;25</title>
<path fill="none" stroke="#111111" stroke-width="0.95" d="M77.47,-107.57C82.07,-108.33 90.26,-109.7 94.93,-110.48"/>
</g>
<!-- 24&#45;&#45;26 -->
<g id="edge27" class="edge">
<title>24&#45;&#45;26</title>
<path fill="none" stroke="#111111" stroke-width="0.95" d="M74.4,-110.64C74.83,-115.58 75.59,-124.37 76.02,-129.39"/>
</g>
<!-- 0 -->
<g id="node1" class="node">
<title>0</title>
<g id="a_node1"><a xlink:title="v=0, sign=1, degree=4, kind=core_u">
<ellipse fill="white" stroke="black" stroke-width="0.85" cx="162.45" cy="-54.21" rx="3.42" ry="3.42"/>
</a>
</g>
</g>
<!-- 1 -->
<g id="node2" class="node">
<title>1</title>
<g id="a_node2"><a xlink:title="v=1, sign=&#45;1, degree=3, kind=core_u">
<ellipse fill="black" stroke="black" stroke-width="0.85" cx="184.42" cy="-60.57" rx="3.42" ry="3.42"/>
</a>
</g>
</g>
<!-- 2 -->
<g id="node3" class="node">
<title>2</title>
<g id="a_node3"><a xlink:title="v=2, sign=&#45;1, degree=3, kind=core_v">
<ellipse fill="black" stroke="black" stroke-width="0.85" cx="189.56" cy="-79.42" rx="3.42" ry="3.42"/>
</a>
</g>
</g>
<!-- 3 -->
<g id="node4" class="node">
<title>3</title>
<g id="a_node4"><a xlink:title="v=3, sign=1, degree=4, kind=core_v">
<ellipse fill="white" stroke="black" stroke-width="0.85" cx="200.65" cy="-102.51" rx="3.42" ry="3.42"/>
</a>
</g>
</g>
<!-- 4 -->
<g id="node5" class="node">
<title>4</title>
<g id="a_node5"><a xlink:title="v=4, sign=&#45;1, degree=3, kind=fill_B_from_W">
<ellipse fill="black" stroke="black" stroke-width="0.85" cx="112.87" cy="-63.6" rx="3.42" ry="3.42"/>
</a>
</g>
</g>
<!-- 5 -->
<g id="node6" class="node">
<title>5</title>
<g id="a_node6"><a xlink:title="v=5, sign=1, degree=1, kind=W_leaf_from_fill_B">
<ellipse fill="white" stroke="black" stroke-width="0.85" cx="109.44" cy="-41.75" rx="3.42" ry="3.42"/>
</a>
</g>
</g>
<!-- 6 -->
<g id="node7" class="node">
<title>6</title>
<g id="a_node7"><a xlink:title="v=6, sign=&#45;1, degree=3, kind=fill_B_from_W">
<ellipse fill="black" stroke="black" stroke-width="0.85" cx="201.55" cy="-26.98" rx="3.42" ry="3.42"/>
</a>
</g>
</g>
<!-- 7 -->
<g id="node8" class="node">
<title>7</title>
<g id="a_node8"><a xlink:title="v=7, sign=1, degree=1, kind=W_leaf_from_fill_B">
<ellipse fill="white" stroke="black" stroke-width="0.85" cx="234.41" cy="-26.09" rx="3.42" ry="3.42"/>
</a>
</g>
</g>
<!-- 8 -->
<g id="node9" class="node">
<title>8</title>
<g id="a_node9"><a xlink:title="v=8, sign=1, degree=1, kind=W_leaf_from_fill_B">
<ellipse fill="white" stroke="black" stroke-width="0.85" cx="218.19" cy="-3.42" rx="3.42" ry="3.42"/>
</a>
</g>
</g>
<!-- 9 -->
<g id="node10" class="node">
<title>9</title>
<g id="a_node10"><a xlink:title="v=9, sign=&#45;1, degree=3, kind=fill_B_from_W">
<ellipse fill="black" stroke="black" stroke-width="0.85" cx="184.08" cy="-131.99" rx="3.42" ry="3.42"/>
</a>
</g>
</g>
<!-- 10 -->
<g id="node11" class="node">
<title>10</title>
<g id="a_node11"><a xlink:title="v=10, sign=1, degree=1, kind=W_leaf_from_fill_B">
<ellipse fill="white" stroke="black" stroke-width="0.85" cx="179.37" cy="-157.83" rx="3.42" ry="3.42"/>
</a>
</g>
</g>
<!-- 11 -->
<g id="node12" class="node">
<title>11</title>
<g id="a_node12"><a xlink:title="v=11, sign=1, degree=1, kind=W_leaf_from_fill_B">
<ellipse fill="white" stroke="black" stroke-width="0.85" cx="158.25" cy="-135.9" rx="3.42" ry="3.42"/>
</a>
</g>
</g>
<!-- 12 -->
<g id="node13" class="node">
<title>12</title>
<g id="a_node13"><a xlink:title="v=12, sign=&#45;1, degree=3, kind=fill_B_from_W">
<ellipse fill="black" stroke="black" stroke-width="0.85" cx="229.14" cy="-129.23" rx="3.42" ry="3.42"/>
</a>
</g>
</g>
<!-- 13 -->
<g id="node14" class="node">
<title>13</title>
<g id="a_node14"><a xlink:title="v=13, sign=1, degree=1, kind=W_leaf_from_fill_B">
<ellipse fill="white" stroke="black" stroke-width="0.85" cx="226.3" cy="-156.79" rx="3.42" ry="3.42"/>
</a>
</g>
</g>
<!-- 14 -->
<g id="node15" class="node">
<title>14</title>
<g id="a_node15"><a xlink:title="v=14, sign=1, degree=1, kind=W_leaf_from_fill_B">
<ellipse fill="white" stroke="black" stroke-width="0.85" cx="253.08" cy="-143.3" rx="3.42" ry="3.42"/>
</a>
</g>
</g>
<!-- 15 -->
<g id="node16" class="node">
<title>15</title>
<g id="a_node16"><a xlink:title="v=15, sign=1, degree=1, kind=W_leaf_from_core_B">
<ellipse fill="white" stroke="black" stroke-width="0.85" cx="173.28" cy="-28.09" rx="3.42" ry="3.42"/>
</a>
</g>
</g>
<!-- 16 -->
<g id="node17" class="node">
<title>16</title>
<g id="a_node17"><a xlink:title="v=16, sign=1, degree=1, kind=W_leaf_from_core_B">
<ellipse fill="white" stroke="black" stroke-width="0.85" cx="216.41" cy="-71.27" rx="3.42" ry="3.42"/>
</a>
</g>
</g>
<!-- 17 -->
<g id="node18" class="node">
<title>17</title>
<g id="a_node18"><a xlink:title="v=17, sign=1, degree=4, kind=R_1_W">
<ellipse fill="white" stroke="black" stroke-width="0.85" cx="64.99" cy="-78.63" rx="3.42" ry="3.42"/>
</a>
</g>
</g>
<!-- 18 -->
<g id="node19" class="node">
<title>18</title>
<g id="a_node19"><a xlink:title="v=18, sign=&#45;1, degree=3, kind=R_1_B">
<ellipse fill="black" stroke="black" stroke-width="0.85" cx="37.28" cy="-53.7" rx="3.42" ry="3.42"/>
</a>
</g>
</g>
<!-- 19 -->
<g id="node20" class="node">
<title>19</title>
<g id="a_node20"><a xlink:title="v=19, sign=1, degree=1, kind=R_0_W">
<ellipse fill="white" stroke="black" stroke-width="0.85" cx="22.12" cy="-29" rx="3.42" ry="3.42"/>
</a>
</g>
</g>
<!-- 20 -->
<g id="node21" class="node">
<title>20</title>
<g id="a_node21"><a xlink:title="v=20, sign=1, degree=1, kind=R_0_W">
<ellipse fill="white" stroke="black" stroke-width="0.85" cx="12.55" cy="-60.88" rx="3.42" ry="3.42"/>
</a>
</g>
</g>
<!-- 21 -->
<g id="node22" class="node">
<title>21</title>
<g id="a_node22"><a xlink:title="v=21, sign=&#45;1, degree=3, kind=R_1_B">
<ellipse fill="black" stroke="black" stroke-width="0.85" cx="32.18" cy="-107.57" rx="3.42" ry="3.42"/>
</a>
</g>
</g>
<!-- 22 -->
<g id="node23" class="node">
<title>22</title>
<g id="a_node23"><a xlink:title="v=22, sign=1, degree=1, kind=R_0_W">
<ellipse fill="white" stroke="black" stroke-width="0.85" cx="3.42" cy="-118.91" rx="3.42" ry="3.42"/>
</a>
</g>
</g>
<!-- 23 -->
<g id="node24" class="node">
<title>23</title>
<g id="a_node24"><a xlink:title="v=23, sign=1, degree=1, kind=R_0_W">
<ellipse fill="white" stroke="black" stroke-width="0.85" cx="27.84" cy="-138.14" rx="3.42" ry="3.42"/>
</a>
</g>
</g>
<!-- 24 -->
<g id="node25" class="node">
<title>24</title>
<g id="a_node25"><a xlink:title="v=24, sign=&#45;1, degree=3, kind=R_1_B">
<ellipse fill="black" stroke="black" stroke-width="0.85" cx="74.08" cy="-107" rx="3.42" ry="3.42"/>
</a>
</g>
</g>
<!-- 25 -->
<g id="node26" class="node">
<title>25</title>
<g id="a_node26"><a xlink:title="v=25, sign=1, degree=1, kind=R_0_W">
<ellipse fill="white" stroke="black" stroke-width="0.85" cx="98.44" cy="-111.06" rx="3.42" ry="3.42"/>
</a>
</g>
</g>
<!-- 26 -->
<g id="node27" class="node">
<title>26</title>
<g id="a_node27"><a xlink:title="v=26, sign=1, degree=1, kind=R_0_W">
<ellipse fill="white" stroke="black" stroke-width="0.85" cx="76.35" cy="-133.16" rx="3.42" ry="3.42"/>
</a>
</g>
</g>
</g>
</svg>
