<?xml version="1.0" encoding="UTF-8" standalone="no"?>
<!DOCTYPE svg PUBLIC "-//W3C//DTD SVG 1.1//EN"
 "http://www.w3.org/Graphics/SVG/1.1/DTD/svg11.dtd">
<!-- Generated by graphviz version 14.0.2 (20251019.1705)
 -->
<!-- Title: G_r2_k0_h0_skeleton Pages: 1 -->
<svg width="240pt" height="202pt"
 viewBox="0.00 0.00 240.00 202.00" xmlns="http://www.w3.org/2000/svg" xmlns:xlink="http://www.w3.org/1999/xlink">
<g id="graph0" class="graph" transform="scale(1 1) rotate(0) translate(2.88 199.46)">
<title>G_r2_k0_h0_skeleton</title>
<polygon fill="white" stroke="none" points="-2.88,2.88 -2.88,-199.46 237.19,-199.46 237.19,2.88 -2.88,2.88"/>
<!-- 0&#45;&#45;1 -->
<g id="edge1" class="edge">
<title>0&#45;&#45;1</title>
<path fill="none" stroke="#111111" stroke-width="0.95" d="M110.56,-104.27C109.47,-93.93 106.28,-63.51 105.16,-52.92"/>
</g>
<!-- 0&#45;&#45;2 -->
<g id="edge2" class="edge">
<title>0&#45;&#45;2</title>
<path fill="none" stroke="#111111" stroke-width="0.95" d="M114.34,-108.91C126.28,-112.95 166.07,-126.41 178.22,-130.52"/>
</g>
<!-- 0&#45;&#45;4 -->
<g id="edge3" class="edge">
<title>0&#45;&#45;4</title>
<path fill="none" stroke="#111111" stroke-width="0.95" d="M107.89,-109.44C97.27,-115.32 61.87,-134.94 51.07,-140.92"/>
</g>
<!-- 0&#45;&#45;7 -->
<g id="edge4" class="edge">
<title>0&#45;&#45;7</title>
<path fill="none" stroke="#111111" stroke-width="0.95" d="M110.37,-111.54C109.27,-118.91 106.88,-135.07 105.81,-142.25"/>
</g>
<!-- 1&#45;&#45;10 -->
<g id="edge5" class="edge">
<title>1&#45;&#45;10</title>
<path fill="none" stroke="#111111" stroke-width="0.95" d="M103.86,-45.63C101.69,-37.11 96.25,-15.75 94.05,-7.12"/>
</g>
<!-- 1&#45;&#45;11 -->
<g id="edge6" class="edge">
<title>1&#45;&#45;11</title>
<path fill="none" stroke="#111111" stroke-width="0.95" d="M108.02,-47.25C114.81,-43.11 130.45,-33.59 136.97,-29.62"/>
</g>
<!-- 2&#45;&#45;3 -->
<g id="edge7" class="edge">
<title>2&#45;&#45;3</title>
<path fill="none" stroke="#111111" stroke-width="0.95" d="M184.86,-133.97C190.44,-138.05 202.15,-146.58 207.66,-150.6"/>
</g>
<!-- 2&#45;&#45;12 -->
<g id="edge8" class="edge">
<title>2&#45;&#45;12</title>
<path fill="none" stroke="#111111" stroke-width="0.95" d="M184.27,-134.46C188.64,-139.2 197.99,-149.14 206.48,-156.94 213.93,-163.78 223.28,-171.19 227.95,-174.82"/>
</g>
<!-- 4&#45;&#45;5 -->
<g id="edge9" class="edge">
<title>4&#45;&#45;5</title>
<path fill="none" stroke="#111111" stroke-width="0.95" d="M44.42,-143.5C36.06,-145.48 14.99,-150.47 6.77,-152.41"/>
</g>
<!-- 4&#45;&#45;6 -->
<g id="edge10" class="edge">
<title>4&#45;&#45;6</title>
<path fill="none" stroke="#111111" stroke-width="0.95" d="M46.39,-145.98C42.18,-155.11 30.45,-180.55 26.2,-189.77"/>
</g>
<!-- 7&#45;&#45;8 -->
<g id="edge11" class="edge">
<title>7&#45;&#45;8</title>
<path fill="none" stroke="#111111" stroke-width="0.95" d="M105.44,-149.38C105.77,-156.73 106.5,-173.47 106.83,-180.91"/>
</g>
<!-- 7&#45;&#45;9 -->
<g id="edge12" class="edge">
<title>7&#45;&#45;9</title>
<path fill="none" stroke="#111111" stroke-width="0.95" d="M108.81,-146.95C116.03,-149.31 132.48,-154.7 139.79,-157.09"/>
</g>
<!-- 0 -->
<g id="node1" class="node">
<title>0</title>
<g id="a_node1"><a xlink:title="v=0, sign=1, degree=4, kind=core_u">
<ellipse fill="white" stroke="black" stroke-width="0.85" cx="110.93" cy="-107.76" rx="3.42" ry="3.42"/>
</a>
</g>
</g>
<!-- 1 -->
<g id="node2" class="node">
<title>1</title>
<g id="a_node2"><a xlink:title="v=1, sign=&#45;1, degree=3, kind=core_v">
<ellipse fill="black" stroke="black" stroke-width="0.85" cx="104.78" cy="-49.22" rx="3.42" ry="3.42"/>
</a>
</g>
</g>
<!-- 2 -->
<g id="node3" class="node">
<title>2</title>
<g id="a_node3"><a xlink:title="v=2, sign=&#45;1, degree=3, kind=fill_B_from_W">
<ellipse fill="black" stroke="black" stroke-width="0.85" cx="181.77" cy="-131.72" rx="3.42" ry="3.42"/>
</a>
</g>
</g>
<!-- 3 -->
<g id="node4" class="node">
<title>3</title>
<g id="a_node4"><a xlink:title="v=3, sign=1, degree=1, kind=W_leaf_from_fill_B">
<ellipse fill="white" stroke="black" stroke-width="0.85" cx="210.64" cy="-152.77" rx="3.42" ry="3.42"/>
</a>
</g>
</g>
<!-- 4 -->
<g id="node5" class="node">
<title>4</title>
<g id="a_node5"><a xlink:title="v=4, sign=&#45;1, degree=3, kind=fill_B_from_W">
<ellipse fill="black" stroke="black" stroke-width="0.85" cx="47.91" cy="-142.67" rx="3.42" ry="3.42"/>
</a>
</g>
</g>
<!-- 5 -->
<g id="node6" class="node">
<title>5</title>
<g id="a_node6"><a xlink:title="v=5, sign=1, degree=1, kind=W_leaf_from_fill_B">
<ellipse fill="white" stroke="black" stroke-width="0.85" cx="3.42" cy="-153.21" rx="3.42" ry="3.42"/>
</a>
</g>
</g>
<!-- 6 -->
<g id="node7" class="node">
<title>6</title>
<g id="a_node7"><a xlink:title="v=6, sign=1, degree=1, kind=W_leaf_from_fill_B">
<ellipse fill="white" stroke="black" stroke-width="0.85" cx="24.64" cy="-193.16" rx="3.42" ry="3.42"/>
</a>
</g>
</g>
<!-- 7 -->
<g id="node8" class="node">
<title>7</title>
<g id="a_node8"><a xlink:title="v=7, sign=&#45;1, degree=3, kind=fill_B_from_W">
<ellipse fill="black" stroke="black" stroke-width="0.85" cx="105.29" cy="-145.79" rx="3.42" ry="3.42"/>
</a>
</g>
</g>
<!-- 8 -->
<g id="node9" class="node">
<title>8</title>
<g id="a_node9"><a xlink:title="v=8, sign=1, degree=1, kind=W_leaf_from_fill_B">
<ellipse fill="white" stroke="black" stroke-width="0.85" cx="106.99" cy="-184.6" rx="3.42" ry="3.42"/>
</a>
</g>
</g>
<!-- 9 -->
<g id="node10" class="node">
<title>9</title>
<g id="a_node10"><a xlink:title="v=9, sign=1, degree=1, kind=W_leaf_from_fill_B">
<ellipse fill="white" stroke="black" stroke-width="0.85" cx="143.41" cy="-158.28" rx="3.42" ry="3.42"/>
</a>
</g>
</g>
<!-- 10 -->
<g id="node11" class="node">
<title>10</title>
<g id="a_node11"><a xlink:title="v=10, sign=1, degree=1, kind=W_leaf_from_core_B">
<ellipse fill="white" stroke="black" stroke-width="0.85" cx="93.11" cy="-3.42" rx="3.42" ry="3.42"/>
</a>
</g>
</g>
<!-- 11 -->
<g id="node12" class="node">
<title>11</title>
<g id="a_node12"><a xlink:title="v=11, sign=1, degree=1, kind=W_leaf_from_core_B">
<ellipse fill="white" stroke="black" stroke-width="0.85" cx="139.9" cy="-27.83" rx="3.42" ry="3.42"/>
</a>
</g>
</g>
<!-- 12 -->
<g id="node13" class="node">
<title>12</title>
<g id="a_node13"><a xlink:title="v=12, sign=1, degree=1, kind=R_0_W">
<ellipse fill="white" stroke="black" stroke-width="0.85" cx="230.89" cy="-177.08" rx="3.42" ry="3.42"/>
</a>
</g>
</g>
</g>
</svg>
