<?xml version="1.0" encoding="UTF-8" standalone="no"?>
<!DOCTYPE svg PUBLIC "-//W3C//DTD SVG 1.1//EN"
 "http://www.w3.org/Graphics/SVG/1.1/DTD/svg11.dtd">
<!-- Generated by graphviz version 14.0.2 (20251019.1705)
 -->
<!-- Title: G_r2_k0_h1_skeleton Pages: 1 -->
<svg width="265pt" height="169pt"
 viewBox="0.00 0.00 265.00 169.00" xmlns="http://www.w3.org/2000/svg" xmlns:xlink="http://www.w3.org/1999/xlink">
<g id="graph0" class="graph" transform="scale(1 1) rotate(0) translate(2.88 166.2)">
<title>G_r2_k0_h1_skeleton</title>
<polygon fill="white" stroke="none" points="-2.88,2.88 -2.88,-166.2 261.66,-166.2 261.66,2.88 -2.88,2.88"/>
<!-- 0&#45;&#45;1 -->
<g id="edge1" class="edge">
<title>0&#45;&#45;1</title>
<path fill="none" stroke="#111111" stroke-width="0.95" d="M199.12,-83.71C196.32,-87.35 191.6,-93.5 188.92,-96.99"/>
</g>
<!-- 0&#45;&#45;2 -->
<g id="edge2" class="edge">
<title>0&#45;&#45;2</title>
<path fill="none" stroke="#111111" stroke-width="0.95" d="M197.76,-80.96C191.99,-81.26 180.35,-81.81 170.47,-81.95 160.82,-82.08 149.44,-81.86 143.81,-81.73"/>
</g>
<!-- 0&#45;&#45;4 -->
<g id="edge3" class="edge">
<title>0&#45;&#45;4</title>
<path fill="none" stroke="#111111" stroke-width="0.95" d="M203.37,-83.67C208.42,-91.07 221.71,-110.54 226.9,-118.14"/>
</g>
<!-- 0&#45;&#45;7 -->
<g id="edge4" class="edge">
<title>0&#45;&#45;7</title>
<path fill="none" stroke="#111111" stroke-width="0.95" d="M203.51,-77.56C207.96,-70.86 218.21,-55.44 222.48,-49.01"/>
</g>
<!-- 1&#45;&#45;10 -->
<g id="edge5" class="edge">
<title>1&#45;&#45;10</title>
<path fill="none" stroke="#111111" stroke-width="0.95" d="M184.89,-96.73C181.74,-92.2 175.66,-83.5 172.5,-78.96"/>
</g>
<!-- 1&#45;&#45;11 -->
<g id="edge6" class="edge">
<title>1&#45;&#45;11</title>
<path fill="none" stroke="#111111" stroke-width="0.95" d="M184.58,-102.64C181.36,-106.85 175.56,-114.41 172.4,-118.53"/>
</g>
<!-- 2&#45;&#45;3 -->
<g id="edge7" class="edge">
<title>2&#45;&#45;3</title>
<path fill="none" stroke="#111111" stroke-width="0.95" d="M138.07,-78.76C135.07,-74.86 129.74,-67.93 126.71,-63.97"/>
</g>
<!-- 2&#45;&#45;12 -->
<g id="edge8" class="edge">
<title>2&#45;&#45;12</title>
<path fill="none" stroke="#111111" stroke-width="0.95" d="M136.66,-81.77C126.7,-82.14 98.95,-83.17 88.9,-83.54"/>
</g>
<!-- 4&#45;&#45;5 -->
<g id="edge9" class="edge">
<title>4&#45;&#45;5</title>
<path fill="none" stroke="#111111" stroke-width="0.95" d="M229.37,-124.81C230.1,-132.14 231.75,-148.81 232.48,-156.23"/>
</g>
<!-- 4&#45;&#45;6 -->
<g id="edge10" class="edge">
<title>4&#45;&#45;6</title>
<path fill="none" stroke="#111111" stroke-width="0.95" d="M232.25,-122.64C237.31,-124.81 247.04,-129 252.11,-131.19"/>
</g>
<!-- 7&#45;&#45;8 -->
<g id="edge11" class="edge">
<title>7&#45;&#45;8</title>
<path fill="none" stroke="#111111" stroke-width="0.95" d="M223.8,-42.74C222.72,-36.76 220.48,-24.36 219.37,-18.2"/>
</g>
<!-- 7&#45;&#45;9 -->
<g id="edge12" class="edge">
<title>7&#45;&#45;9</title>
<path fill="none" stroke="#111111" stroke-width="0.95" d="M227.61,-44.58C232.62,-42.17 242.27,-37.54 247.3,-35.12"/>
</g>
<!-- 12&#45;&#45;13 -->
<g id="edge13" class="edge">
<title>12&#45;&#45;13</title>
<path fill="none" stroke="#111111" stroke-width="0.95" d="M85.12,-87.38C84.97,-95 84.61,-112.32 84.45,-120.03"/>
</g>
<!-- 12&#45;&#45;16 -->
<g id="edge14" class="edge">
<title>12&#45;&#45;16</title>
<path fill="none" stroke="#111111" stroke-width="0.95" d="M81.56,-84.62C72.85,-86.88 50.88,-92.57 42.32,-94.79"/>
</g>
<!-- 12&#45;&#45;19 -->
<g id="edge15" class="edge">
<title>12&#45;&#45;19</title>
<path fill="none" stroke="#111111" stroke-width="0.95" d="M84.41,-79.97C82.68,-71.75 78.52,-52.09 76.78,-43.88"/>
</g>
<!-- 13&#45;&#45;14 -->
<g id="edge16" class="edge">
<title>13&#45;&#45;14</title>
<path fill="none" stroke="#111111" stroke-width="0.95" d="M86.17,-126.79C89.36,-132.02 95.95,-142.85 99.23,-148.24"/>
</g>
<!-- 13&#45;&#45;15 -->
<g id="edge17" class="edge">
<title>13&#45;&#45;15</title>
<path fill="none" stroke="#111111" stroke-width="0.95" d="M82.15,-126.66C78.66,-131.07 71.95,-139.56 68.46,-143.99"/>
</g>
<!-- 16&#45;&#45;17 -->
<g id="edge18" class="edge">
<title>16&#45;&#45;17</title>
<path fill="none" stroke="#111111" stroke-width="0.95" d="M36.65,-98.75C32.72,-104.28 24.48,-115.86 20.61,-121.3"/>
</g>
<!-- 16&#45;&#45;18 -->
<g id="edge19" class="edge">
<title>16&#45;&#45;18</title>
<path fill="none" stroke="#111111" stroke-width="0.95" d="M35.04,-95.21C28.19,-94.32 13.83,-92.46 7.08,-91.59"/>
</g>
<!-- 19&#45;&#45;20 -->
<g id="edge20" class="edge">
<title>19&#45;&#45;20</title>
<path fill="none" stroke="#111111" stroke-width="0.95" d="M76.29,-36.52C76.85,-29.41 78.07,-13.78 78.62,-6.85"/>
</g>
<!-- 19&#45;&#45;21 -->
<g id="edge21" class="edge">
<title>19&#45;&#45;21</title>
<path fill="none" stroke="#111111" stroke-width="0.95" d="M72.68,-38.31C68.07,-35.71 59.78,-31.04 55.26,-28.49"/>
</g>
<!-- 0 -->
<g id="node1" class="node">
<title>0</title>
<g id="a_node1"><a xlink:title="v=0, sign=1, degree=4, kind=core_u">
<ellipse fill="white" stroke="black" stroke-width="0.85" cx="201.38" cy="-80.76" rx="3.42" ry="3.42"/>
</a>
</g>
</g>
<!-- 1 -->
<g id="node2" class="node">
<title>1</title>
<g id="a_node2"><a xlink:title="v=1, sign=&#45;1, degree=3, kind=core_v">
<ellipse fill="black" stroke="black" stroke-width="0.85" cx="186.91" cy="-99.61" rx="3.42" ry="3.42"/>
</a>
</g>
</g>
<!-- 2 -->
<g id="node3" class="node">
<title>2</title>
<g id="a_node3"><a xlink:title="v=2, sign=&#45;1, degree=3, kind=fill_B_from_W">
<ellipse fill="black" stroke="black" stroke-width="0.85" cx="140.27" cy="-81.63" rx="3.42" ry="3.42"/>
</a>
</g>
</g>
<!-- 3 -->
<g id="node4" class="node">
<title>3</title>
<g id="a_node4"><a xlink:title="v=3, sign=1, degree=1, kind=W_leaf_from_fill_B">
<ellipse fill="white" stroke="black" stroke-width="0.85" cx="124.42" cy="-60.99" rx="3.42" ry="3.42"/>
</a>
</g>
</g>
<!-- 4 -->
<g id="node5" class="node">
<title>4</title>
<g id="a_node5"><a xlink:title="v=4, sign=&#45;1, degree=3, kind=fill_B_from_W">
<ellipse fill="black" stroke="black" stroke-width="0.85" cx="229.02" cy="-121.25" rx="3.42" ry="3.42"/>
</a>
</g>
</g>
<!-- 5 -->
<g id="node6" class="node">
<title>5</title>
<g id="a_node6"><a xlink:title="v=5, sign=1, degree=1, kind=W_leaf_from_fill_B">
<ellipse fill="white" stroke="black" stroke-width="0.85" cx="232.84" cy="-159.9" rx="3.42" ry="3.42"/>
</a>
</g>
</g>
<!-- 6 -->
<g id="node7" class="node">
<title>6</title>
<g id="a_node7"><a xlink:title="v=6, sign=1, degree=1, kind=W_leaf_from_fill_B">
<ellipse fill="white" stroke="black" stroke-width="0.85" cx="255.36" cy="-132.59" rx="3.42" ry="3.42"/>
</a>
</g>
</g>
<!-- 7 -->
<g id="node8" class="node">
<title>7</title>
<g id="a_node8"><a xlink:title="v=7, sign=&#45;1, degree=3, kind=fill_B_from_W">
<ellipse fill="black" stroke="black" stroke-width="0.85" cx="224.41" cy="-46.12" rx="3.42" ry="3.42"/>
</a>
</g>
</g>
<!-- 8 -->
<g id="node9" class="node">
<title>8</title>
<g id="a_node9"><a xlink:title="v=8, sign=1, degree=1, kind=W_leaf_from_fill_B">
<ellipse fill="white" stroke="black" stroke-width="0.85" cx="218.71" cy="-14.55" rx="3.42" ry="3.42"/>
</a>
</g>
</g>
<!-- 9 -->
<g id="node10" class="node">
<title>9</title>
<g id="a_node10"><a xlink:title="v=9, sign=1, degree=1, kind=W_leaf_from_fill_B">
<ellipse fill="white" stroke="black" stroke-width="0.85" cx="250.53" cy="-33.57" rx="3.42" ry="3.42"/>
</a>
</g>
</g>
<!-- 10 -->
<g id="node11" class="node">
<title>10</title>
<g id="a_node11"><a xlink:title="v=10, sign=1, degree=1, kind=W_leaf_from_core_B">
<ellipse fill="white" stroke="black" stroke-width="0.85" cx="170.47" cy="-76.05" rx="3.42" ry="3.42"/>
</a>
</g>
</g>
<!-- 11 -->
<g id="node12" class="node">
<title>11</title>
<g id="a_node12"><a xlink:title="v=11, sign=1, degree=1, kind=W_leaf_from_core_B">
<ellipse fill="white" stroke="black" stroke-width="0.85" cx="170.2" cy="-121.39" rx="3.42" ry="3.42"/>
</a>
</g>
</g>
<!-- 12 -->
<g id="node13" class="node">
<title>12</title>
<g id="a_node13"><a xlink:title="v=12, sign=1, degree=4, kind=R_1_W">
<ellipse fill="white" stroke="black" stroke-width="0.85" cx="85.2" cy="-83.68" rx="3.42" ry="3.42"/>
</a>
</g>
</g>
<!-- 13 -->
<g id="node14" class="node">
<title>13</title>
<g id="a_node14"><a xlink:title="v=13, sign=&#45;1, degree=3, kind=R_1_B">
<ellipse fill="black" stroke="black" stroke-width="0.85" cx="84.38" cy="-123.84" rx="3.42" ry="3.42"/>
</a>
</g>
</g>
<!-- 14 -->
<g id="node15" class="node">
<title>14</title>
<g id="a_node15"><a xlink:title="v=14, sign=1, degree=1, kind=R_0_W">
<ellipse fill="white" stroke="black" stroke-width="0.85" cx="101.17" cy="-151.42" rx="3.42" ry="3.42"/>
</a>
</g>
</g>
<!-- 15 -->
<g id="node16" class="node">
<title>15</title>
<g id="a_node16"><a xlink:title="v=15, sign=1, degree=1, kind=R_0_W">
<ellipse fill="white" stroke="black" stroke-width="0.85" cx="66.21" cy="-146.83" rx="3.42" ry="3.42"/>
</a>
</g>
</g>
<!-- 16 -->
<g id="node17" class="node">
<title>16</title>
<g id="a_node17"><a xlink:title="v=16, sign=&#45;1, degree=3, kind=R_1_B">
<ellipse fill="black" stroke="black" stroke-width="0.85" cx="38.83" cy="-95.7" rx="3.42" ry="3.42"/>
</a>
</g>
</g>
<!-- 17 -->
<g id="node18" class="node">
<title>17</title>
<g id="a_node18"><a xlink:title="v=17, sign=1, degree=1, kind=R_0_W">
<ellipse fill="white" stroke="black" stroke-width="0.85" cx="18.51" cy="-124.25" rx="3.42" ry="3.42"/>
</a>
</g>
</g>
<!-- 18 -->
<g id="node19" class="node">
<title>18</title>
<g id="a_node19"><a xlink:title="v=18, sign=1, degree=1, kind=R_0_W">
<ellipse fill="white" stroke="black" stroke-width="0.85" cx="3.42" cy="-91.11" rx="3.42" ry="3.42"/>
</a>
</g>
</g>
<!-- 19 -->
<g id="node20" class="node">
<title>19</title>
<g id="a_node20"><a xlink:title="v=19, sign=&#45;1, degree=3, kind=R_1_B">
<ellipse fill="black" stroke="black" stroke-width="0.85" cx="76" cy="-40.18" rx="3.42" ry="3.42"/>
</a>
</g>
</g>
<!-- 20 -->
<g id="node21" class="node">
<title>20</title>
<g id="a_node21"><a xlink:title="v=20, sign=1, degree=1, kind=R_0_W">
<ellipse fill="white" stroke="black" stroke-width="0.85" cx="78.89" cy="-3.42" rx="3.42" ry="3.42"/>
</a>
</g>
</g>
<!-- 21 -->
<g id="node22" class="node">
<title>21</title>
<g id="a_node22"><a xlink:title="v=21, sign=1, degree=1, kind=R_0_W">
<ellipse fill="white" stroke="black" stroke-width="0.85" cx="52.12" cy="-26.72" rx="3.42" ry="3.42"/>
</a>
</g>
</g>
</g>
</svg>
