<?xml version="1.0" encoding="UTF-8" standalone="no"?>
<!DOCTYPE svg PUBLIC "-//W3C//DTD SVG 1.1//EN"
 "http://www.w3.org/Graphics/SVG/1.1/DTD/svg11.dtd">
<!-- Generated by graphviz version 14.0.2 (20251019.1705)
 -->
<!-- Title: G_r2_k2_h1_skeleton Pages: 1 -->
<svg width="295pt" height="220pt"
 viewBox="0.00 0.00 295.00 220.00" xmlns="http://www.w3.org/2000/svg" xmlns:xlink="http://www.w3.org/1999/xlink">
<g id="graph0" class="graph" transform="scale(1 1) rotate(0) translate(2.88 217.13)">
<title>G_r2_k2_h1_skeleton</title>
<polygon fill="white" stroke="none" points="-2.88,2.88 -2.88,-217.13 291.8,-217.13 291.8,2.88 -2.88,2.88"/>
<!-- 0&#45;&#45;1 -->
<g id="edge1" class="edge">
<title>0&#45;&#45;1</title>
<path fill="none" stroke="#111111" stroke-width="0.95" d="M165.9,-81.2C158.82,-85.75 140.99,-97.24 134.04,-101.71"/>
</g>
<!-- 0&#45;&#45;3 -->
<g id="edge2" class="edge">
<title>0&#45;&#45;3</title>
<path fill="none" stroke="#111111" stroke-width="0.95" d="M165.06,-79.35C159.14,-79.44 147.73,-79.61 141.78,-79.7"/>
</g>
<!-- 0&#45;&#45;6 -->
<g id="edge3" class="edge">
<title>0&#45;&#45;6</title>
<path fill="none" stroke="#111111" stroke-width="0.95" d="M171.44,-82.12C176.87,-88.05 189.37,-101.7 194.58,-107.38"/>
</g>
<!-- 0&#45;&#45;8 -->
<g id="edge4" class="edge">
<title>0&#45;&#45;8</title>
<path fill="none" stroke="#111111" stroke-width="0.95" d="M170.74,-75.99C175.27,-68.06 186.7,-48.08 191.15,-40.3"/>
</g>
<!-- 1&#45;&#45;2 -->
<g id="edge5" class="edge">
<title>1&#45;&#45;2</title>
<path fill="none" stroke="#111111" stroke-width="0.95" d="M128.13,-105.27C119.67,-110.04 96.08,-123.34 87.53,-128.16"/>
</g>
<!-- 1&#45;&#45;4 -->
<g id="edge6" class="edge">
<title>1&#45;&#45;4</title>
<path fill="none" stroke="#111111" stroke-width="0.95" d="M128.82,-106.49C125.87,-110.14 120.89,-116.29 118.06,-119.78"/>
</g>
<!-- 2&#45;&#45;5 -->
<g id="edge7" class="edge">
<title>2&#45;&#45;5</title>
<path fill="none" stroke="#111111" stroke-width="0.95" d="M86.4,-132.71C89.97,-137.63 97.38,-147.83 101.06,-152.9"/>
</g>
<!-- 2&#45;&#45;11 -->
<g id="edge8" class="edge">
<title>2&#45;&#45;11</title>
<path fill="none" stroke="#111111" stroke-width="0.95" d="M81.04,-131.45C72.45,-135.36 49.73,-145.71 41.18,-149.6"/>
</g>
<!-- 2&#45;&#45;14 -->
<g id="edge9" class="edge">
<title>2&#45;&#45;14</title>
<path fill="none" stroke="#111111" stroke-width="0.95" d="M82.99,-126.52C81.53,-122.79 79.27,-116.6 78.03,-111.07 76.07,-102.38 75.21,-91.91 74.87,-86.45"/>
</g>
<!-- 3&#45;&#45;4 -->
<g id="edge10" class="edge">
<title>3&#45;&#45;4</title>
<path fill="none" stroke="#111111" stroke-width="0.95" d="M136.05,-83.06C133.82,-86.93 130.05,-93.56 127.03,-99.37 123.44,-106.31 119.54,-114.59 117.46,-119.09"/>
</g>
<!-- 3&#45;&#45;20 -->
<g id="edge11" class="edge">
<title>3&#45;&#45;20</title>
<path fill="none" stroke="#111111" stroke-width="0.95" d="M138.3,-76.07C138.86,-69.85 139.98,-57.39 140.54,-51.21"/>
</g>
<!-- 4&#45;&#45;5 -->
<g id="edge12" class="edge">
<title>4&#45;&#45;5</title>
<path fill="none" stroke="#111111" stroke-width="0.95" d="M114.58,-125.99C112.12,-132.47 106.97,-146.06 104.55,-152.44"/>
</g>
<!-- 4&#45;&#45;17 -->
<g id="edge13" class="edge">
<title>4&#45;&#45;17</title>
<path fill="none" stroke="#111111" stroke-width="0.95" d="M112.51,-121.19C106.32,-119 93.33,-114.4 87.23,-112.24"/>
</g>
<!-- 5&#45;&#45;21 -->
<g id="edge14" class="edge">
<title>5&#45;&#45;21</title>
<path fill="none" stroke="#111111" stroke-width="0.95" d="M102.74,-159.63C101.89,-165.9 100.2,-178.49 99.36,-184.73"/>
</g>
<!-- 6&#45;&#45;7 -->
<g id="edge15" class="edge">
<title>6&#45;&#45;7</title>
<path fill="none" stroke="#111111" stroke-width="0.95" d="M198.78,-106.81C200.97,-103.12 204.59,-96.99 206.83,-93.22"/>
</g>
<!-- 6&#45;&#45;22 -->
<g id="edge16" class="edge">
<title>6&#45;&#45;22</title>
<path fill="none" stroke="#111111" stroke-width="0.95" d="M199.35,-112.74C204.32,-118.49 215.65,-131.57 220.69,-137.39"/>
</g>
<!-- 8&#45;&#45;9 -->
<g id="edge17" class="edge">
<title>8&#45;&#45;9</title>
<path fill="none" stroke="#111111" stroke-width="0.95" d="M196.5,-36.28C202.02,-34.96 212.64,-32.42 218.18,-31.1"/>
</g>
<!-- 8&#45;&#45;10 -->
<g id="edge18" class="edge">
<title>8&#45;&#45;10</title>
<path fill="none" stroke="#111111" stroke-width="0.95" d="M194.21,-33.76C196.58,-27.37 201.71,-13.5 204.13,-6.96"/>
</g>
<!-- 11&#45;&#45;12 -->
<g id="edge19" class="edge">
<title>11&#45;&#45;12</title>
<path fill="none" stroke="#111111" stroke-width="0.95" d="M35.86,-154.31C33.08,-158.76 28.08,-166.76 25.36,-171.11"/>
</g>
<!-- 11&#45;&#45;13 -->
<g id="edge20" class="edge">
<title>11&#45;&#45;13</title>
<path fill="none" stroke="#111111" stroke-width="0.95" d="M34.17,-150.57C27.51,-149.58 13.54,-147.52 6.98,-146.55"/>
</g>
<!-- 14&#45;&#45;15 -->
<g id="edge21" class="edge">
<title>14&#45;&#45;15</title>
<path fill="none" stroke="#111111" stroke-width="0.95" d="M71.54,-81.2C67.27,-79.11 59.68,-75.38 55.35,-73.25"/>
</g>
<!-- 14&#45;&#45;16 -->
<g id="edge22" class="edge">
<title>14&#45;&#45;16</title>
<path fill="none" stroke="#111111" stroke-width="0.95" d="M75.1,-79.4C75.85,-73.47 77.4,-61.17 78.17,-55.05"/>
</g>
<!-- 17&#45;&#45;18 -->
<g id="edge23" class="edge">
<title>17&#45;&#45;18</title>
<path fill="none" stroke="#111111" stroke-width="0.95" d="M80.95,-113.29C75.57,-117.29 64.3,-125.69 59,-129.64"/>
</g>
<!-- 17&#45;&#45;19 -->
<g id="edge24" class="edge">
<title>17&#45;&#45;19</title>
<path fill="none" stroke="#111111" stroke-width="0.95" d="M80.38,-110.35C74.83,-109.23 64.16,-107.06 58.6,-105.93"/>
</g>
<!-- 22&#45;&#45;23 -->
<g id="edge25" class="edge">
<title>22&#45;&#45;23</title>
<path fill="none" stroke="#111111" stroke-width="0.95" d="M226.08,-138.66C232.87,-134.89 249.81,-125.51 256.89,-121.58"/>
</g>
<!-- 22&#45;&#45;26 -->
<g id="edge26" class="edge">
<title>22&#45;&#45;26</title>
<path fill="none" stroke="#111111" stroke-width="0.95" d="M226,-142.86C229.92,-146.47 236.95,-152.95 240.79,-156.48"/>
</g>
<!-- 22&#45;&#45;29 -->
<g id="edge27" class="edge">
<title>22&#45;&#45;29</title>
<path fill="none" stroke="#111111" stroke-width="0.95" d="M221.44,-143.62C217.58,-151.06 208.33,-168.84 204.48,-176.27"/>
</g>
<!-- 23&#45;&#45;24 -->
<g id="edge28" class="edge">
<title>23&#45;&#45;24</title>
<path fill="none" stroke="#111111" stroke-width="0.95" d="M263.2,-121.18C267.97,-123.27 277.06,-127.25 282.03,-129.42"/>
</g>
<!-- 23&#45;&#45;25 -->
<g id="edge29" class="edge">
<title>23&#45;&#45;25</title>
<path fill="none" stroke="#111111" stroke-width="0.95" d="M262.68,-117.1C266.74,-112.84 274.55,-104.66 278.62,-100.39"/>
</g>
<!-- 26&#45;&#45;27 -->
<g id="edge30" class="edge">
<title>26&#45;&#45;27</title>
<path fill="none" stroke="#111111" stroke-width="0.95" d="M243.12,-162.49C242.67,-167.31 241.87,-175.89 241.41,-180.78"/>
</g>
<!-- 26&#45;&#45;28 -->
<g id="edge31" class="edge">
<title>26&#45;&#45;28</title>
<path fill="none" stroke="#111111" stroke-width="0.95" d="M247.05,-159.94C251.41,-161.15 258.69,-163.18 263,-164.38"/>
</g>
<!-- 29&#45;&#45;30 -->
<g id="edge32" class="edge">
<title>29&#45;&#45;30</title>
<path fill="none" stroke="#111111" stroke-width="0.95" d="M202.71,-183.44C202.66,-189.56 202.56,-201.46 202.51,-207.35"/>
</g>
<!-- 29&#45;&#45;31 -->
<g id="edge33" class="edge">
<title>29&#45;&#45;31</title>
<path fill="none" stroke="#111111" stroke-width="0.95" d="M199.8,-181.26C194.61,-184.17 183.83,-190.21 178.47,-193.21"/>
</g>
<!-- 0 -->
<g id="node1" class="node">
<title>0</title>
<g id="a_node1"><a xlink:title="v=0, sign=1, degree=4, kind=core_u">
<ellipse fill="white" stroke="black" stroke-width="0.85" cx="168.85" cy="-79.3" rx="3.42" ry="3.42"/>
</a>
</g>
</g>
<!-- 1 -->
<g id="node2" class="node">
<title>1</title>
<g id="a_node2"><a xlink:title="v=1, sign=&#45;1, degree=3, kind=core_u">
<ellipse fill="black" stroke="black" stroke-width="0.85" cx="131.2" cy="-103.54" rx="3.42" ry="3.42"/>
</a>
</g>
</g>
<!-- 2 -->
<g id="node3" class="node">
<title>2</title>
<g id="a_node3"><a xlink:title="v=2, sign=1, degree=4, kind=core_u">
<ellipse fill="white" stroke="black" stroke-width="0.85" cx="84.38" cy="-129.93" rx="3.42" ry="3.42"/>
</a>
</g>
</g>
<!-- 3 -->
<g id="node4" class="node">
<title>3</title>
<g id="a_node4"><a xlink:title="v=3, sign=&#45;1, degree=3, kind=core_v">
<ellipse fill="black" stroke="black" stroke-width="0.85" cx="137.97" cy="-79.76" rx="3.42" ry="3.42"/>
</a>
</g>
</g>
<!-- 4 -->
<g id="node5" class="node">
<title>4</title>
<g id="a_node5"><a xlink:title="v=4, sign=1, degree=4, kind=core_v">
<ellipse fill="white" stroke="black" stroke-width="0.85" cx="115.94" cy="-122.4" rx="3.42" ry="3.42"/>
</a>
</g>
</g>
<!-- 5 -->
<g id="node6" class="node">
<title>5</title>
<g id="a_node6"><a xlink:title="v=5, sign=&#45;1, degree=3, kind=core_v">
<ellipse fill="black" stroke="black" stroke-width="0.85" cx="103.24" cy="-155.9" rx="3.42" ry="3.42"/>
</a>
</g>
</g>
<!-- 6 -->
<g id="node7" class="node">
<title>6</title>
<g id="a_node7"><a xlink:title="v=6, sign=&#45;1, degree=3, kind=fill_B_from_W">
<ellipse fill="black" stroke="black" stroke-width="0.85" cx="196.92" cy="-109.94" rx="3.42" ry="3.42"/>
</a>
</g>
</g>
<!-- 7 -->
<g id="node8" class="node">
<title>7</title>
<g id="a_node8"><a xlink:title="v=7, sign=1, degree=1, kind=W_leaf_from_fill_B">
<ellipse fill="white" stroke="black" stroke-width="0.85" cx="208.79" cy="-89.91" rx="3.42" ry="3.42"/>
</a>
</g>
</g>
<!-- 8 -->
<g id="node9" class="node">
<title>8</title>
<g id="a_node9"><a xlink:title="v=8, sign=&#45;1, degree=3, kind=fill_B_from_W">
<ellipse fill="black" stroke="black" stroke-width="0.85" cx="192.97" cy="-37.12" rx="3.42" ry="3.42"/>
</a>
</g>
</g>
<!-- 9 -->
<g id="node10" class="node">
<title>9</title>
<g id="a_node10"><a xlink:title="v=9, sign=1, degree=1, kind=W_leaf_from_fill_B">
<ellipse fill="white" stroke="black" stroke-width="0.85" cx="221.73" cy="-30.25" rx="3.42" ry="3.42"/>
</a>
</g>
</g>
<!-- 10 -->
<g id="node11" class="node">
<title>10</title>
<g id="a_node11"><a xlink:title="v=10, sign=1, degree=1, kind=W_leaf_from_fill_B">
<ellipse fill="white" stroke="black" stroke-width="0.85" cx="205.44" cy="-3.42" rx="3.42" ry="3.42"/>
</a>
</g>
</g>
<!-- 11 -->
<g id="node12" class="node">
<title>11</title>
<g id="a_node12"><a xlink:title="v=11, sign=&#45;1, degree=3, kind=fill_B_from_W">
<ellipse fill="black" stroke="black" stroke-width="0.85" cx="37.86" cy="-151.11" rx="3.42" ry="3.42"/>
</a>
</g>
</g>
<!-- 12 -->
<g id="node13" class="node">
<title>12</title>
<g id="a_node13"><a xlink:title="v=12, sign=1, degree=1, kind=W_leaf_from_fill_B">
<ellipse fill="white" stroke="black" stroke-width="0.85" cx="23.47" cy="-174.14" rx="3.42" ry="3.42"/>
</a>
</g>
</g>
<!-- 13 -->
<g id="node14" class="node">
<title>13</title>
<g id="a_node14"><a xlink:title="v=13, sign=1, degree=1, kind=W_leaf_from_fill_B">
<ellipse fill="white" stroke="black" stroke-width="0.85" cx="3.42" cy="-146.02" rx="3.42" ry="3.42"/>
</a>
</g>
</g>
<!-- 14 -->
<g id="node15" class="node">
<title>14</title>
<g id="a_node15"><a xlink:title="v=14, sign=&#45;1, degree=3, kind=fill_B_from_W">
<ellipse fill="black" stroke="black" stroke-width="0.85" cx="74.68" cy="-82.75" rx="3.42" ry="3.42"/>
</a>
</g>
</g>
<!-- 15 -->
<g id="node16" class="node">
<title>15</title>
<g id="a_node16"><a xlink:title="v=15, sign=1, degree=1, kind=W_leaf_from_fill_B">
<ellipse fill="white" stroke="black" stroke-width="0.85" cx="52.09" cy="-71.65" rx="3.42" ry="3.42"/>
</a>
</g>
</g>
<!-- 16 -->
<g id="node17" class="node">
<title>16</title>
<g id="a_node17"><a xlink:title="v=16, sign=1, degree=1, kind=W_leaf_from_fill_B">
<ellipse fill="white" stroke="black" stroke-width="0.85" cx="78.63" cy="-51.44" rx="3.42" ry="3.42"/>
</a>
</g>
</g>
<!-- 17 -->
<g id="node18" class="node">
<title>17</title>
<g id="a_node18"><a xlink:title="v=17, sign=&#45;1, degree=3, kind=fill_B_from_W">
<ellipse fill="black" stroke="black" stroke-width="0.85" cx="83.92" cy="-111.07" rx="3.42" ry="3.42"/>
</a>
</g>
</g>
<!-- 18 -->
<g id="node19" class="node">
<title>18</title>
<g id="a_node19"><a xlink:title="v=18, sign=1, degree=1, kind=W_leaf_from_fill_B">
<ellipse fill="white" stroke="black" stroke-width="0.85" cx="56.13" cy="-131.77" rx="3.42" ry="3.42"/>
</a>
</g>
</g>
<!-- 19 -->
<g id="node20" class="node">
<title>19</title>
<g id="a_node20"><a xlink:title="v=19, sign=1, degree=1, kind=W_leaf_from_fill_B">
<ellipse fill="white" stroke="black" stroke-width="0.85" cx="55.03" cy="-105.21" rx="3.42" ry="3.42"/>
</a>
</g>
</g>
<!-- 20 -->
<g id="node21" class="node">
<title>20</title>
<g id="a_node21"><a xlink:title="v=20, sign=1, degree=1, kind=W_leaf_from_core_B">
<ellipse fill="white" stroke="black" stroke-width="0.85" cx="140.87" cy="-47.56" rx="3.42" ry="3.42"/>
</a>
</g>
</g>
<!-- 21 -->
<g id="node22" class="node">
<title>21</title>
<g id="a_node22"><a xlink:title="v=21, sign=1, degree=1, kind=W_leaf_from_core_B">
<ellipse fill="white" stroke="black" stroke-width="0.85" cx="98.86" cy="-188.42" rx="3.42" ry="3.42"/>
</a>
</g>
</g>
<!-- 22 -->
<g id="node23" class="node">
<title>22</title>
<g id="a_node23"><a xlink:title="v=22, sign=1, degree=4, kind=R_1_W">
<ellipse fill="white" stroke="black" stroke-width="0.85" cx="223.18" cy="-140.27" rx="3.42" ry="3.42"/>
</a>
</g>
</g>
<!-- 23 -->
<g id="node24" class="node">
<title>23</title>
<g id="a_node24"><a xlink:title="v=23, sign=&#45;1, degree=3, kind=R_1_B">
<ellipse fill="black" stroke="black" stroke-width="0.85" cx="260.08" cy="-119.81" rx="3.42" ry="3.42"/>
</a>
</g>
</g>
<!-- 24 -->
<g id="node25" class="node">
<title>24</title>
<g id="a_node25"><a xlink:title="v=24, sign=1, degree=1, kind=R_0_W">
<ellipse fill="white" stroke="black" stroke-width="0.85" cx="285.5" cy="-130.94" rx="3.42" ry="3.42"/>
</a>
</g>
</g>
<!-- 25 -->
<g id="node26" class="node">
<title>25</title>
<g id="a_node26"><a xlink:title="v=25, sign=1, degree=1, kind=R_0_W">
<ellipse fill="white" stroke="black" stroke-width="0.85" cx="281.24" cy="-97.65" rx="3.42" ry="3.42"/>
</a>
</g>
</g>
<!-- 26 -->
<g id="node27" class="node">
<title>26</title>
<g id="a_node27"><a xlink:title="v=26, sign=&#45;1, degree=3, kind=R_1_B">
<ellipse fill="black" stroke="black" stroke-width="0.85" cx="243.45" cy="-158.94" rx="3.42" ry="3.42"/>
</a>
</g>
</g>
<!-- 27 -->
<g id="node28" class="node">
<title>27</title>
<g id="a_node28"><a xlink:title="v=27, sign=1, degree=1, kind=R_0_W">
<ellipse fill="white" stroke="black" stroke-width="0.85" cx="241.07" cy="-184.47" rx="3.42" ry="3.42"/>
</a>
</g>
</g>
<!-- 28 -->
<g id="node29" class="node">
<title>28</title>
<g id="a_node29"><a xlink:title="v=28, sign=1, degree=1, kind=R_0_W">
<ellipse fill="white" stroke="black" stroke-width="0.85" cx="266.5" cy="-165.36" rx="3.42" ry="3.42"/>
</a>
</g>
</g>
<!-- 29 -->
<g id="node30" class="node">
<title>29</title>
<g id="a_node30"><a xlink:title="v=29, sign=&#45;1, degree=3, kind=R_1_B">
<ellipse fill="black" stroke="black" stroke-width="0.85" cx="202.74" cy="-179.62" rx="3.42" ry="3.42"/>
</a>
</g>
</g>
<!-- 30 -->
<g id="node31" class="node">
<title>30</title>
<g id="a_node31"><a xlink:title="v=30, sign=1, degree=1, kind=R_0_W">
<ellipse fill="white" stroke="black" stroke-width="0.85" cx="202.49" cy="-210.83" rx="3.42" ry="3.42"/>
</a>
</g>
</g>
<!-- 31 -->
<g id="node32" class="node">
<title>31</title>
<g id="a_node32"><a xlink:title="v=31, sign=1, degree=1, kind=R_0_W">
<ellipse fill="white" stroke="black" stroke-width="0.85" cx="175.31" cy="-194.99" rx="3.42" ry="3.42"/>
</a>
</g>
</g>
</g>
</svg>
